<?xml version="1.0" encoding="utf-8"?>
<!-- Generator: Adobe Illustrator 27.9.0, SVG Export Plug-In . SVG Version: 6.00 Build 0)  -->
<svg version="1.1" id="Behance" xmlns="http://www.w3.org/2000/svg" xmlns:xlink="http://www.w3.org/1999/xlink" x="0px" y="0px"
	 viewBox="0 0 32 32" style="enable-background:new 0 0 32 32;" xml:space="preserve">
<style type="text/css">
	.st0{fill:#FFFFFF;}
</style>
<rect width="32" height="32"/>
<path class="st0" d="M14.9,16.31c-0.67-0.42-0.91-0.43-0.91-0.43c0.11-0.04,0.19-0.1,0.57-0.37c0.64-0.45,1.01-1.46,0.99-2.22
	c-0.02-1.31-0.67-1.99-1.37-2.47c-0.7-0.48-1.93-0.31-3.21-0.31H9.06h-0.3H7.2v10.94h1.73h0.12h3c1.23,0,2.21-0.09,2.86-0.63
	c1.03-0.84,1.11-1.36,1.11-2.32C16.03,17.64,15.62,16.76,14.9,16.31z M10.88,12.33c0.51,0,1.6,0.04,1.6,0.04s1.02,0.13,1.02,1.26
	c0,1.34-1.03,1.5-1.03,1.5s-1.01,0.01-1.46,0.01H9.33v-2.81H10.88z M13.37,19.46c-0.42,0.33-1.04,0.26-1.83,0.26H9.33v-2.95h2.36
	c0.56,0,1.19-0.07,1.65,0.24c0.31,0.2,0.56,0.63,0.56,1.21C13.9,18.78,13.77,19.15,13.37,19.46z"/>
<rect x="18.01" y="11.04" class="st0" width="5.25" height="1.39"/>
<path class="st0" d="M23.17,18.07h1.63c0-0.32,0-0.52,0-0.59c-0.22-2.79-1.84-4.11-4.16-4.11s-4.11,1.79-4.11,4.11
	s1.79,4.03,4.11,4.03c1.59,0,2.97-0.72,3.69-2.02L22.63,19c-0.34,0.64-0.98,1.03-1.99,1.03c-1.09,0-1.82-0.77-2-1.96h4.27H23.17z
	 M20.64,14.79c1.09,0,2.06,0.85,2.06,1.98h-4.05C18.83,15.62,19.48,14.79,20.64,14.79z"/>
</svg>
