<?xml version="1.0" encoding="utf-8"?>
<!-- Generator: Adobe Illustrator 27.9.0, SVG Export Plug-In . SVG Version: 6.00 Build 0)  -->
<svg version="1.1" id="Facebook" xmlns="http://www.w3.org/2000/svg" xmlns:xlink="http://www.w3.org/1999/xlink" x="0px" y="0px"
	 viewBox="0 0 32 32" style="enable-background:new 0 0 32 32;" xml:space="preserve">
<style type="text/css">
	.st0{clip-path:url(#SVGID_00000130636662381118633150000009938938990363303058_);}
	.st1{fill:#3A559F;}
	.st2{fill:#FFFFFF;}
</style>
<rect class="st1" width="32" height="32"/>
<path class="st2" d="M22.15,7.4l-3.19,0c-3.58,0-5.9,2.38-5.9,6.06v2.79H9.85c-0.28,0-0.5,0.22-0.5,0.5v4.05
	c0,0.28,0.22,0.5,0.5,0.5h3.21V31.5c0,0.28,0.22,0.5,0.5,0.5h4.18c0.28,0,0.5-0.22,0.5-0.5V21.29H22c0.28,0,0.5-0.22,0.5-0.5l0-4.05
	c0-0.13-0.05-0.26-0.15-0.35c-0.09-0.09-0.22-0.15-0.35-0.15h-3.75v-2.37c0-1.14,0.27-1.72,1.75-1.72l2.15,0
	c0.28,0,0.5-0.22,0.5-0.5V7.9C22.65,7.62,22.43,7.4,22.15,7.4L22.15,7.4z"/>
</svg>
