<?xml version="1.0" encoding="utf-8"?>
<!-- Generator: Adobe Illustrator 27.9.0, SVG Export Plug-In . SVG Version: 6.00 Build 0)  -->
<svg version="1.1" id="Layer_1" xmlns="http://www.w3.org/2000/svg" xmlns:xlink="http://www.w3.org/1999/xlink" x="0px" y="0px"
	 viewBox="0 0 110 60" style="enable-background:new 0 0 110 60;" xml:space="preserve">
<g>
	<path d="M33.22,50.84h44v-44h-44V50.84z M34.22,7.84h42v42h-42V7.84z"/>
	<path d="M66.42,39.03c-0.16-0.21-0.28-0.41-0.37-0.61l-9.52-24.19h-2.13l-2.22,4.5l-7.67,19.63c-0.18,0.48-0.5,0.82-0.96,1.04
		l-1.92,0.85v1.41h8.46v-1.41l-3.2-1.19l2.59-6.88h9.93l2.72,6.97l-3.17,1.09v1.41h9.99v-1.41l-2-0.79
		C66.76,39.38,66.58,39.24,66.42,39.03z M50.47,29.56l3.86-10.23h0.32l0.73,2.54l3,7.69H50.47z"/>
	<polygon points="85.69,6.49 84.99,7.2 106.95,28.84 82.99,52.81 83.69,53.51 108.37,28.84 	"/>
	<polygon points="25.01,7.2 24.31,6.49 1.63,28.84 26.31,53.51 27.01,52.81 3.05,28.84 	"/>
</g>
</svg>
