<?xml version="1.0" encoding="utf-8"?>
<!-- Generator: Adobe Illustrator 27.9.0, SVG Export Plug-In . SVG Version: 6.00 Build 0)  -->
<svg version="1.1" id="Layer_1" xmlns="http://www.w3.org/2000/svg" xmlns:xlink="http://www.w3.org/1999/xlink" x="0px" y="0px"
	 viewBox="0 0 32 32" style="enable-background:new 0 0 32 32;" xml:space="preserve">
<style type="text/css">
	.st0{fill:#007AAA;}
	.st1{fill:#FFFFFF;}
</style>
<rect class="st0" width="32" height="32"/>
<path class="st1" d="M9.32,7.35c1.15,0,2.12,0.97,2.12,2.12c0,1.21-1.03,2.15-2.12,2.12C8.2,11.63,7.2,10.69,7.2,9.48
	C7.17,8.29,8.14,7.35,9.32,7.35"/>
<path class="st1" d="M10.51,24.65H8.08c-0.33,0-0.61-0.27-0.61-0.61V13.42c0-0.33,0.24-0.61,0.58-0.61h2.46
	c0.33,0,0.61,0.27,0.61,0.61v10.65C11.12,24.37,10.84,24.65,10.51,24.65"/>
<path class="st1" d="M24.77,16.52c0-2.25-1.67-4.01-3.91-4.01h-0.64c-1.21,0-2.4,0.58-3.03,1.52c-0.21,0.21-0.3,0.3-0.3,0.3v-1.21
	c0-0.12-0.18-0.3-0.3-0.3h-3.03c-0.12,0-0.3,0.12-0.3,0.27v11.32c0,0.12,0.18,0.24,0.3,0.24h3.34c0.12,0,0.3-0.12,0.3-0.24v-6.55
	c0-1.12,0.85-2.06,1.97-2.09c0.58,0,1.09,0.21,1.49,0.61c0.36,0.36,0.52,0.88,0.52,1.46v6.52c0,0.12,0.18,0.3,0.3,0.3h3.03
	c0.12,0,0.3-0.18,0.3-0.3v-7.83H24.77z"/>
</svg>
